<?xml version="1.0" encoding="utf-8"?>
<!DOCTYPE svg PUBLIC "-//W3C//DTD SVG 1.1//EN" "http://www.w3.org/Graphics/SVG/1.1/DTD/svg11.dtd">
<svg version="1.1" xmlns="http://www.w3.org/2000/svg" xmlns:xlink="http://www.w3.org/1999/xlink" x="0px" y="0px" width="350px" height="350px" viewBox="0 0 3500 3500" preserveAspectRatio="xMidYMid meet">
<g id="layer101">
 <path fill="#cb8b7f" d="M0 1750 l0 -1750 1750 0 1750 0 0 1750 0 1750 -1750 0 -1750 0 0 -1750z"/>
 </g>
<g id="layer102">
 <path fill="#be9291" d="M0 1750 l0 -1750 1750 0 1750 0 0 1750 0 1750 -1750 0 -1750 0 0 -1750z m2217 423 c-4 -3 -10 -3 -14 0 -3 4 0 7 7 7 7 0 10 -3 7 -7z m-789 -60 c2 -7 -1 -13 -6 -13 -6 0 -13 -8 -15 -17 -4 -15 -5 -14 -6 3 -1 17 -6 20 -28 16 -26 -4 -27 -3 -9 10 23 18 58 18 64 1z"/>
 </g>
<g id="layer103">
 <path fill="#d78c8c" d="M0 1750 l0 -1750 1750 0 1750 0 0 1750 0 1750 -1750 0 -1750 0 0 -1750z m2217 423 c-4 -3 -10 -3 -14 0 -3 4 0 7 7 7 7 0 10 -3 7 -7z m-789 -60 c2 -7 -1 -13 -7 -13 -6 0 -12 -8 -12 -17 -1 -17 -2 -17 -6 0 -3 11 -14 17 -31 17 -24 0 -25 1 -7 14 22 16 57 16 63 -1z m-731 -30 c-4 -3 -7 0 -7 7 0 7 3 10 7 7 3 -4 3 -10 0 -14z m713 -677 c0 -3 -5 -8 -12 -12 -7 -4 -8 -3 -4 4 7 12 16 16 16 8z m705 -14 c-3 -3 -11 0 -18 7 -9 10 -8 11 6 5 10 -3 15 -9 12 -12z m-1398 1 c-4 -3 -10 -3 -14 0 -3 4 0 7 7 7 7 0 10 -3 7 -7z m1500 0 c-4 -3 -10 -3 -14 0 -3 4 0 7 7 7 7 0 10 -3 7 -7z"/>
 </g>
<g id="layer104">
 <path fill="#e2868e" d="M638 2218 c9 -9 15 -9 24 0 9 9 7 12 -12 12 -19 0 -21 -3 -12 -12z"/>
 <path fill="#e2868e" d="M2213 2223 c4 -3 10 -3 14 0 3 4 0 7 -7 7 -7 0 -10 -3 -7 -7z"/>
 <path fill="#e2868e" d="M2715 2179 c-11 -16 -1 -20 34 -13 23 5 29 9 19 15 -18 12 -46 11 -53 -2z"/>
 <path fill="#e2868e" d="M1413 2143 c4 -3 10 -3 14 0 3 4 0 7 -7 7 -7 0 -10 -3 -7 -7z"/>
 <path fill="#e2868e" d="M2162 2139 c2 -7 10 -15 17 -17 8 -3 12 1 9 9 -2 7 -10 15 -17 17 -8 3 -12 -1 -9 -9z"/>
 <path fill="#e2868e" d="M1317 2133 c-21 -21 22 -33 51 -14 11 7 10 10 -3 15 -21 8 -40 8 -48 -1z"/>
 <path fill="#e2868e" d="M2803 2113 c4 -3 10 -3 14 0 3 4 0 7 -7 7 -7 0 -10 -3 -7 -7z"/>
 <path fill="#e2868e" d="M700 1750 l0 -349 340 -3 c187 -2 345 -1 350 0 6 2 10 130 10 353 l0 349 -350 0 -350 0 0 -350z"/>
 <path fill="#e2868e" d="M2100 1750 c0 -273 3 -350 13 -350 137 -5 688 -3 689 2 2 5 2 163 0 353 l-3 345 -349 0 -350 0 0 -350z"/>
 <path fill="#e2868e" d="M668 1413 c7 -3 16 -2 19 1 4 3 -2 6 -13 5 -11 0 -14 -3 -6 -6z"/>
 <path fill="#e2868e" d="M2106 1349 c-7 -35 -3 -45 13 -34 13 7 14 35 2 53 -6 10 -10 4 -15 -19z"/>
 <path fill="#e2868e" d="M2740 1359 c0 -24 23 -21 28 4 2 10 -3 17 -12 17 -10 0 -16 -9 -16 -21z"/>
 <path fill="#e2868e" d="M2855 1340 c-3 -5 -1 -10 4 -10 6 0 11 5 11 10 0 6 -2 10 -4 10 -3 0 -8 -4 -11 -10z"/>
 <path fill="#e2868e" d="M2735 1310 c-18 -8 -17 -9 8 -9 15 -1 27 4 27 9 0 12 -8 12 -35 0z"/>
 <path fill="#e2868e" d="M640 1300 c0 -5 5 -10 10 -10 6 0 10 5 10 10 0 6 -4 10 -10 10 -5 0 -10 -4 -10 -10z"/>
 <path fill="#e2868e" d="M1365 1300 c-3 -5 -1 -10 4 -10 6 0 11 5 11 10 0 6 -2 10 -4 10 -3 0 -8 -4 -11 -10z"/>
 <path fill="#e2868e" d="M2220 1280 c0 -7 3 -10 7 -7 3 4 3 10 0 14 -4 3 -7 0 -7 -7z"/>
 </g>
<g id="layer105">
 <path fill="#fffefe" d="M700 1750 l0 -350 350 0 350 0 0 350 0 350 -350 0 -350 0 0 -350z"/>
 <path fill="#fffefe" d="M2100 1750 l0 -350 350 0 350 0 0 350 0 350 -350 0 -350 0 0 -350z"/>
 </g>

</svg>